<svg version="1.1" xmlns="http://www.w3.org/2000/svg" xmlns:xlink="http://www.w3.org/1999/xlink" width="800px" height="800px" viewBox="0,0,256,256"><g fill="#a327f1" fill-rule="evenodd" stroke="none" stroke-width="1" stroke-linecap="butt" stroke-linejoin="miter" stroke-miterlimit="10" stroke-dasharray="" stroke-dashoffset="0" font-family="none" font-weight="none" font-size="none" text-anchor="none" style="mix-blend-mode: normal"><g transform="scale(0.56264,0.56264)"><g><path d="M246.4,204.35v-0.665c-0.136,0.223 -0.324,0.446 -0.442,0.665z"></path><path d="M0,0v455h455v-455zM141.522,378.002h-67.506v-203.096h67.506zM107.769,147.186h-0.446c-22.645,0 -37.323,-15.601 -37.323,-35.101c0,-19.928 15.107,-35.087 38.211,-35.087c23.109,0 37.31,15.159 37.752,35.087c0,19.5 -14.643,35.101 -38.194,35.101zM385,378.002h-67.524v-108.657c0,-27.291 -9.756,-45.92 -34.195,-45.92c-18.664,0 -29.755,12.543 -34.641,24.693c-1.776,4.34 -2.24,10.373 -2.24,16.459v113.426h-67.537c0,0 0.905,-184.043 0,-203.096h67.537v28.779c8.973,-13.807 24.986,-33.547 60.856,-33.547c44.437,0 77.744,29.02 77.744,91.398z"></path></g></g></g></svg>